<svg width="100" height="100" viewBox="0 0 100 100" fill="none" xmlns="http://www.w3.org/2000/svg">
<rect width="100" height="100" rx="10" fill="#2196F3"/>
<path d="M10 90V10H44.4136C50.3309 10 55.5085 11.1719 59.9465 13.5156C64.3844 15.8594 67.8362 19.1536 70.3017 23.3984C72.7672 27.6432 74 32.6042 74 38.2813C74 44.0104 72.7283 48.9714 70.1849 53.1641C67.6675 57.3568 64.1249 60.5859 59.5572 62.8516C55.0154 65.1172 49.708 66.25 43.635 66.25H23.0803V49.375H39.2749C41.8183 49.375 43.9854 48.9323 45.7762 48.0469C47.5929 47.1354 48.9813 45.8464 49.9416 44.1797C50.9278 42.513 51.4209 40.5469 51.4209 38.2813C51.4209 35.9896 50.9278 34.0365 49.9416 32.4219C48.9813 30.7813 47.5929 29.5312 45.7762 28.6719C43.9854 27.7865 41.8183 27.3437 39.2749 27.3437H31.6448V90H10Z" fill="white"/>
<rect x="58" y="53" width="15" height="13" fill="#2196F3"/>
<path d="M67.5537 42C70.2978 42 72.8669 42.3779 75.2432 43.1572C77.6145 43.9349 79.7257 45.0834 81.5547 46.6113H81.5557C83.4014 48.14 84.8784 50.0194 85.9863 52.2246C87.1074 54.4559 87.7642 56.9673 87.9932 59.7246L88.1729 61.8896H73L72.8447 60.0596C72.7825 59.3268 72.6205 58.7065 72.3818 58.1787L72.376 58.165L72.3701 58.1523C72.1487 57.6433 71.8484 57.2227 71.4658 56.8711L71.4482 56.8555L71.4316 56.8389C71.0761 56.4966 70.6237 56.2135 70.0371 56.0068L70.0098 55.9971C69.4378 55.7865 68.7346 55.6612 67.8711 55.6611C66.3616 55.6611 65.2201 56.0265 64.335 56.6523C63.4373 57.2962 62.6941 58.2532 62.1533 59.6387C61.6194 61.0402 61.3213 62.8105 61.3213 65C61.3213 67.331 61.6292 69.1565 62.167 70.543L62.2725 70.7959C62.8116 72.0307 63.5144 72.8685 64.3359 73.4209C65.22 74.0024 66.3408 74.3389 67.792 74.3389C68.6397 74.3388 69.339 74.2318 69.9131 74.0527C70.4958 73.8578 70.9642 73.5969 71.3438 73.2822C71.7343 72.9584 72.0524 72.5696 72.3018 72.1025L72.3076 72.0908L72.4023 71.9072C72.6148 71.468 72.7709 70.9609 72.8594 70.3721L73.1172 68.6572L74.8516 68.6689L86.0146 68.749L88.1572 68.7646L87.9941 70.9014C87.8416 72.9005 87.2876 74.8959 86.3701 76.8789L86.3682 76.8838C85.428 78.9007 84.1033 80.7425 82.4209 82.4102H82.4199C80.6929 84.1217 78.5831 85.4693 76.1299 86.4736C73.5989 87.5098 70.7256 88 67.5537 88C63.5348 87.9999 59.862 87.1273 56.583 85.3408L56.5791 85.3389C53.2807 83.5337 50.6863 80.879 48.7998 77.4395L48.7969 77.4346C46.8976 73.9449 46 69.7703 46 65C46 60.1991 46.9188 56.0091 48.8672 52.5254C50.78 49.0921 53.3925 46.4485 56.7012 44.6592L57.3193 44.335C60.4294 42.7696 63.8529 42.0001 67.5537 42Z" fill="#2196F3" stroke="white" stroke-width="4"/>
</svg>
