<svg width="100" height="100" viewBox="0 0 100 100" fill="none" xmlns="http://www.w3.org/2000/svg">
<rect width="100" height="100" rx="10" fill="#2196F3"/>
<path d="M10 78V10H39.5742C44.6594 10 49.1089 10.9961 52.9228 12.9883C56.7366 14.9805 59.703 17.7806 61.8218 21.3887C63.9406 24.9967 65 29.2135 65 34.0391C65 38.9089 63.9071 43.1257 61.7214 46.6895C59.558 50.2533 56.5136 52.998 52.5882 54.9238C48.6851 56.8496 44.1241 57.8125 38.9051 57.8125H21.2409V43.4688H35.1582C37.3439 43.4688 39.2062 43.0924 40.7451 42.3398C42.3064 41.5651 43.4996 40.4694 44.3248 39.0527C45.1723 37.6361 45.5961 35.9648 45.5961 34.0391C45.5961 32.0911 45.1723 30.431 44.3248 29.0586C43.4996 27.6641 42.3064 26.6016 40.7451 25.8711C39.2062 25.1185 37.3439 24.7422 35.1582 24.7422H28.601V78H10Z" fill="white"/>
<path d="M90 57.0513H75.9C75.8 55.8758 75.5333 54.8094 75.1 53.8522C74.6833 52.895 74.1 52.0721 73.35 51.3836C72.6167 50.6782 71.725 50.1408 70.675 49.7714C69.625 49.3851 68.4333 49.192 67.1 49.192C64.7667 49.192 62.7917 49.763 61.175 50.9049C59.575 52.0469 58.3583 53.6843 57.525 55.817C56.7083 57.9498 56.3 60.5108 56.3 63.5C56.3 66.6572 56.7167 69.3021 57.55 71.4349C58.4 73.5509 59.625 75.1462 61.225 76.221C62.825 77.279 64.75 77.808 67 77.808C68.2833 77.808 69.4333 77.6484 70.45 77.3294C71.4667 76.9935 72.35 76.5149 73.1 75.8935C73.85 75.2722 74.4583 74.5249 74.925 73.6516C75.4083 72.7616 75.7333 71.7624 75.9 70.654L90 70.7548C89.8333 72.9379 89.225 75.163 88.175 77.4301C87.125 79.6805 85.6333 81.7628 83.7 83.6773C81.7833 85.5749 79.4083 87.1031 76.575 88.2619C73.7417 89.4206 70.45 90 66.7 90C62 90 57.7833 88.984 54.05 86.952C50.3333 84.92 47.3917 81.9308 45.225 77.9843C43.075 74.0379 42 69.2098 42 63.5C42 57.7567 43.1 52.9202 45.3 48.9905C47.5 45.044 50.4667 42.0632 54.2 40.048C57.9333 38.016 62.1 37 66.7 37C69.9333 37 72.9083 37.445 75.625 38.3351C78.3417 39.2251 80.725 40.5266 82.775 42.2395C84.825 43.9357 86.475 46.0265 87.725 48.5119C88.975 50.9973 89.7333 53.8438 90 57.0513Z" fill="white"/>
</svg>
